<mxfile host="app.diagrams.net" agent="Mozilla/5.0 (Windows NT 10.0; Win64; x64) AppleWebKit/537.36 (KHTML, like Gecko) Chrome/122.0.0.0 Safari/537.36" version="26.2.14">
  <diagram name="1 oldal" id="ohfmbEw8cCkdrReCNdVJ">
    <mxGraphModel dx="12815" dy="6176" grid="1" gridSize="10" guides="1" tooltips="1" connect="1" arrows="1" fold="1" page="1" pageScale="1" pageWidth="827" pageHeight="1169" math="0" shadow="0">
      <root>
        <mxCell id="0" />
        <mxCell id="1" parent="0" />
        <mxCell id="ecLFSbvW6iDAmhPW75aN-254" value="Dropdown" style="rounded=0;whiteSpace=wrap;html=1;" vertex="1" parent="1">
          <mxGeometry x="-1535" y="760" width="165" height="60" as="geometry" />
        </mxCell>
        <mxCell id="ecLFSbvW6iDAmhPW75aN-255" value="" style="rounded=0;whiteSpace=wrap;html=1;" vertex="1" parent="1">
          <mxGeometry x="-2140" y="970" width="1080" height="480" as="geometry" />
        </mxCell>
        <mxCell id="ecLFSbvW6iDAmhPW75aN-256" value="" style="rounded=0;whiteSpace=wrap;html=1;" vertex="1" parent="1">
          <mxGeometry x="-2140" y="970" width="1080" height="120" as="geometry" />
        </mxCell>
        <mxCell id="ecLFSbvW6iDAmhPW75aN-257" style="edgeStyle=orthogonalEdgeStyle;rounded=0;orthogonalLoop=1;jettySize=auto;html=1;exitX=0.5;exitY=0;exitDx=0;exitDy=0;" edge="1" parent="1" source="ecLFSbvW6iDAmhPW75aN-258">
          <mxGeometry relative="1" as="geometry">
            <mxPoint x="-1600" y="1429.9999999999998" as="targetPoint" />
          </mxGeometry>
        </mxCell>
        <mxCell id="ecLFSbvW6iDAmhPW75aN-258" value="" style="rounded=0;whiteSpace=wrap;html=1;" vertex="1" parent="1">
          <mxGeometry x="-2140" y="1429.9999999999998" width="1080" height="20" as="geometry" />
        </mxCell>
        <mxCell id="ecLFSbvW6iDAmhPW75aN-259" value="" style="rounded=0;whiteSpace=wrap;html=1;" vertex="1" parent="1">
          <mxGeometry x="-1160" y="970" width="100" height="120" as="geometry" />
        </mxCell>
        <mxCell id="ecLFSbvW6iDAmhPW75aN-260" value="" style="rounded=0;whiteSpace=wrap;html=1;" vertex="1" parent="1">
          <mxGeometry x="-2000" y="1000" width="120" height="60" as="geometry" />
        </mxCell>
        <mxCell id="ecLFSbvW6iDAmhPW75aN-261" value="" style="rounded=0;whiteSpace=wrap;html=1;" vertex="1" parent="1">
          <mxGeometry x="-1330" y="1000" width="120" height="60" as="geometry" />
        </mxCell>
        <mxCell id="ecLFSbvW6iDAmhPW75aN-262" value="" style="rounded=0;whiteSpace=wrap;html=1;" vertex="1" parent="1">
          <mxGeometry x="-1820" y="1000" width="120" height="60" as="geometry" />
        </mxCell>
        <mxCell id="ecLFSbvW6iDAmhPW75aN-263" value="" style="rounded=0;whiteSpace=wrap;html=1;" vertex="1" parent="1">
          <mxGeometry x="-1490" y="1000" width="120" height="60" as="geometry" />
        </mxCell>
        <mxCell id="ecLFSbvW6iDAmhPW75aN-264" value="" style="rounded=0;whiteSpace=wrap;html=1;" vertex="1" parent="1">
          <mxGeometry x="-1650" y="1000" width="120" height="60" as="geometry" />
        </mxCell>
        <mxCell id="ecLFSbvW6iDAmhPW75aN-265" value="" style="rounded=0;whiteSpace=wrap;html=1;" vertex="1" parent="1">
          <mxGeometry x="-1140" y="1000" width="60" height="60" as="geometry" />
        </mxCell>
        <mxCell id="ecLFSbvW6iDAmhPW75aN-266" value="" style="rounded=0;whiteSpace=wrap;html=1;" vertex="1" parent="1">
          <mxGeometry x="-2070" y="1090" width="940" height="340" as="geometry" />
        </mxCell>
        <mxCell id="ecLFSbvW6iDAmhPW75aN-267" value="Kezdőlap" style="text;html=1;align=center;verticalAlign=middle;whiteSpace=wrap;rounded=0;" vertex="1" parent="1">
          <mxGeometry x="-2000" y="1000" width="120" height="60" as="geometry" />
        </mxCell>
        <mxCell id="ecLFSbvW6iDAmhPW75aN-268" value="" style="rounded=0;whiteSpace=wrap;html=1;" vertex="1" parent="1">
          <mxGeometry x="-2120" y="1000" width="60" height="60" as="geometry" />
        </mxCell>
        <mxCell id="ecLFSbvW6iDAmhPW75aN-269" value="&lt;div&gt;Logo&lt;/div&gt;" style="text;html=1;align=center;verticalAlign=middle;whiteSpace=wrap;rounded=0;" vertex="1" parent="1">
          <mxGeometry x="-2120" y="1000" width="60" height="60" as="geometry" />
        </mxCell>
        <mxCell id="ecLFSbvW6iDAmhPW75aN-270" value="Étel &amp;amp; Ital" style="text;html=1;align=center;verticalAlign=middle;whiteSpace=wrap;rounded=0;" vertex="1" parent="1">
          <mxGeometry x="-1820" y="1000" width="120" height="60" as="geometry" />
        </mxCell>
        <mxCell id="ecLFSbvW6iDAmhPW75aN-271" value="Társasok" style="text;html=1;align=center;verticalAlign=middle;whiteSpace=wrap;rounded=0;" vertex="1" parent="1">
          <mxGeometry x="-1650" y="1000" width="120" height="60" as="geometry" />
        </mxCell>
        <mxCell id="ecLFSbvW6iDAmhPW75aN-272" value="Foglalás" style="text;html=1;align=center;verticalAlign=middle;whiteSpace=wrap;rounded=0;" vertex="1" parent="1">
          <mxGeometry x="-1490" y="1000" width="120" height="60" as="geometry" />
        </mxCell>
        <mxCell id="ecLFSbvW6iDAmhPW75aN-273" value="Kapcsolat" style="text;html=1;align=center;verticalAlign=middle;whiteSpace=wrap;rounded=0;" vertex="1" parent="1">
          <mxGeometry x="-1330" y="1000" width="120" height="60" as="geometry" />
        </mxCell>
        <mxCell id="ecLFSbvW6iDAmhPW75aN-274" value="Profilom" style="text;html=1;align=center;verticalAlign=middle;whiteSpace=wrap;rounded=0;" vertex="1" parent="1">
          <mxGeometry x="-1140" y="1000" width="60" height="60" as="geometry" />
        </mxCell>
        <mxCell id="ecLFSbvW6iDAmhPW75aN-275" value="Footer (C)" style="text;html=1;align=center;verticalAlign=middle;whiteSpace=wrap;rounded=0;" vertex="1" parent="1">
          <mxGeometry x="-2140" y="1429.9999999999998" width="1080" height="20" as="geometry" />
        </mxCell>
        <mxCell id="ecLFSbvW6iDAmhPW75aN-276" value="margin" style="text;html=1;align=center;verticalAlign=middle;whiteSpace=wrap;rounded=0;" vertex="1" parent="1">
          <mxGeometry x="-2140" y="1090" width="70" height="340" as="geometry" />
        </mxCell>
        <mxCell id="ecLFSbvW6iDAmhPW75aN-277" value="margin" style="text;html=1;align=center;verticalAlign=middle;whiteSpace=wrap;rounded=0;" vertex="1" parent="1">
          <mxGeometry x="-1130" y="1090" width="70" height="340" as="geometry" />
        </mxCell>
        <mxCell id="ecLFSbvW6iDAmhPW75aN-278" value="" style="rounded=0;whiteSpace=wrap;html=1;" vertex="1" parent="1">
          <mxGeometry x="-1870" y="1090" width="530" height="340" as="geometry" />
        </mxCell>
        <mxCell id="ecLFSbvW6iDAmhPW75aN-279" value="Módosítások mentése" style="rounded=0;whiteSpace=wrap;html=1;" vertex="1" parent="1">
          <mxGeometry x="-1665" y="1343.9999999999998" width="120" height="40" as="geometry" />
        </mxCell>
        <mxCell id="ecLFSbvW6iDAmhPW75aN-280" value="Nyelv" style="rounded=0;whiteSpace=wrap;html=1;" vertex="1" parent="1">
          <mxGeometry x="-1770" y="1199.9999999999998" width="120" height="40" as="geometry" />
        </mxCell>
        <mxCell id="ecLFSbvW6iDAmhPW75aN-281" value="Beállítások" style="rounded=0;whiteSpace=wrap;html=1;" vertex="1" parent="1">
          <mxGeometry x="-1800" y="1120" width="400" height="40" as="geometry" />
        </mxCell>
        <mxCell id="ecLFSbvW6iDAmhPW75aN-282" value="X" style="rounded=0;whiteSpace=wrap;html=1;" vertex="1" parent="1">
          <mxGeometry x="-1380" y="1100" width="30" height="30" as="geometry" />
        </mxCell>
        <mxCell id="ecLFSbvW6iDAmhPW75aN-283" value="Sötét Mód" style="rounded=0;whiteSpace=wrap;html=1;" vertex="1" parent="1">
          <mxGeometry x="-1560" y="1199.9999999999998" width="120" height="40" as="geometry" />
        </mxCell>
        <mxCell id="ecLFSbvW6iDAmhPW75aN-284" style="edgeStyle=orthogonalEdgeStyle;rounded=0;orthogonalLoop=1;jettySize=auto;html=1;exitX=0.5;exitY=1;exitDx=0;exitDy=0;" edge="1" parent="1" source="ecLFSbvW6iDAmhPW75aN-280" target="ecLFSbvW6iDAmhPW75aN-280">
          <mxGeometry relative="1" as="geometry" />
        </mxCell>
        <mxCell id="ecLFSbvW6iDAmhPW75aN-285" value="" style="rounded=0;whiteSpace=wrap;html=1;" vertex="1" parent="1">
          <mxGeometry x="-2140" y="970" width="1080" height="480" as="geometry" />
        </mxCell>
        <mxCell id="ecLFSbvW6iDAmhPW75aN-286" value="" style="rounded=0;whiteSpace=wrap;html=1;" vertex="1" parent="1">
          <mxGeometry x="-2140" y="970" width="1080" height="120" as="geometry" />
        </mxCell>
        <mxCell id="ecLFSbvW6iDAmhPW75aN-287" style="edgeStyle=orthogonalEdgeStyle;rounded=0;orthogonalLoop=1;jettySize=auto;html=1;exitX=0.5;exitY=0;exitDx=0;exitDy=0;" edge="1" parent="1" source="ecLFSbvW6iDAmhPW75aN-288">
          <mxGeometry relative="1" as="geometry">
            <mxPoint x="-1600" y="1429.9999999999998" as="targetPoint" />
          </mxGeometry>
        </mxCell>
        <mxCell id="ecLFSbvW6iDAmhPW75aN-288" value="" style="rounded=0;whiteSpace=wrap;html=1;" vertex="1" parent="1">
          <mxGeometry x="-2140" y="1429.9999999999998" width="1080" height="20" as="geometry" />
        </mxCell>
        <mxCell id="ecLFSbvW6iDAmhPW75aN-289" value="" style="rounded=0;whiteSpace=wrap;html=1;" vertex="1" parent="1">
          <mxGeometry x="-1160" y="970" width="100" height="120" as="geometry" />
        </mxCell>
        <mxCell id="ecLFSbvW6iDAmhPW75aN-290" value="" style="rounded=0;whiteSpace=wrap;html=1;" vertex="1" parent="1">
          <mxGeometry x="-2070" y="1090" width="940" height="340" as="geometry" />
        </mxCell>
        <mxCell id="ecLFSbvW6iDAmhPW75aN-291" value="" style="rounded=0;whiteSpace=wrap;html=1;" vertex="1" parent="1">
          <mxGeometry x="-2120" y="1000" width="60" height="60" as="geometry" />
        </mxCell>
        <mxCell id="ecLFSbvW6iDAmhPW75aN-292" value="&lt;div&gt;Logo&lt;/div&gt;" style="text;html=1;align=center;verticalAlign=middle;whiteSpace=wrap;rounded=0;" vertex="1" parent="1">
          <mxGeometry x="-2120" y="1000" width="60" height="60" as="geometry" />
        </mxCell>
        <mxCell id="ecLFSbvW6iDAmhPW75aN-293" value="Footer (C)" style="text;html=1;align=center;verticalAlign=middle;whiteSpace=wrap;rounded=0;" vertex="1" parent="1">
          <mxGeometry x="-2140" y="1429.9999999999998" width="1080" height="20" as="geometry" />
        </mxCell>
        <mxCell id="ecLFSbvW6iDAmhPW75aN-294" value="margin" style="text;html=1;align=center;verticalAlign=middle;whiteSpace=wrap;rounded=0;" vertex="1" parent="1">
          <mxGeometry x="-2140" y="1090" width="70" height="340" as="geometry" />
        </mxCell>
        <mxCell id="ecLFSbvW6iDAmhPW75aN-295" value="margin" style="text;html=1;align=center;verticalAlign=middle;whiteSpace=wrap;rounded=0;" vertex="1" parent="1">
          <mxGeometry x="-1130" y="1090" width="70" height="340" as="geometry" />
        </mxCell>
        <mxCell id="ecLFSbvW6iDAmhPW75aN-296" value="" style="rounded=0;whiteSpace=wrap;html=1;" vertex="1" parent="1">
          <mxGeometry x="-2070" y="1090" width="940" height="40" as="geometry" />
        </mxCell>
        <mxCell id="ecLFSbvW6iDAmhPW75aN-297" value="keresés..." style="rounded=0;whiteSpace=wrap;html=1;" vertex="1" parent="1">
          <mxGeometry x="-2050" y="1095" width="250" height="30" as="geometry" />
        </mxCell>
        <mxCell id="ecLFSbvW6iDAmhPW75aN-298" value="" style="rounded=0;whiteSpace=wrap;html=1;" vertex="1" parent="1">
          <mxGeometry x="-2040" y="1200" width="200" height="180" as="geometry" />
        </mxCell>
        <mxCell id="ecLFSbvW6iDAmhPW75aN-299" value="kép" style="rounded=0;whiteSpace=wrap;html=1;" vertex="1" parent="1">
          <mxGeometry x="-2030" y="1219.9999999999998" width="90" height="80" as="geometry" />
        </mxCell>
        <mxCell id="ecLFSbvW6iDAmhPW75aN-300" value="cím" style="rounded=0;whiteSpace=wrap;html=1;" vertex="1" parent="1">
          <mxGeometry x="-1932.5" y="1204.9999999999998" width="80" height="30" as="geometry" />
        </mxCell>
        <mxCell id="ecLFSbvW6iDAmhPW75aN-301" value="ár" style="rounded=0;whiteSpace=wrap;html=1;" vertex="1" parent="1">
          <mxGeometry x="-1932.5" y="1283.9999999999998" width="80" height="30" as="geometry" />
        </mxCell>
        <mxCell id="ecLFSbvW6iDAmhPW75aN-302" value="" style="rounded=0;whiteSpace=wrap;html=1;" vertex="1" parent="1">
          <mxGeometry x="-1820" y="1200" width="200" height="180" as="geometry" />
        </mxCell>
        <mxCell id="ecLFSbvW6iDAmhPW75aN-303" value="kép" style="rounded=0;whiteSpace=wrap;html=1;" vertex="1" parent="1">
          <mxGeometry x="-1810" y="1219.9999999999998" width="90" height="80" as="geometry" />
        </mxCell>
        <mxCell id="ecLFSbvW6iDAmhPW75aN-304" value="ár" style="rounded=0;whiteSpace=wrap;html=1;" vertex="1" parent="1">
          <mxGeometry x="-1712.5" y="1287.4999999999998" width="80" height="30" as="geometry" />
        </mxCell>
        <mxCell id="ecLFSbvW6iDAmhPW75aN-305" value="" style="rounded=0;whiteSpace=wrap;html=1;" vertex="1" parent="1">
          <mxGeometry x="-1600" y="1200" width="200" height="180" as="geometry" />
        </mxCell>
        <mxCell id="ecLFSbvW6iDAmhPW75aN-306" value="kép" style="rounded=0;whiteSpace=wrap;html=1;" vertex="1" parent="1">
          <mxGeometry x="-1590" y="1219.9999999999998" width="90" height="80" as="geometry" />
        </mxCell>
        <mxCell id="ecLFSbvW6iDAmhPW75aN-307" value="ár" style="rounded=0;whiteSpace=wrap;html=1;" vertex="1" parent="1">
          <mxGeometry x="-1487.5" y="1287.4999999999998" width="80" height="30" as="geometry" />
        </mxCell>
        <mxCell id="ecLFSbvW6iDAmhPW75aN-308" value="" style="rounded=0;whiteSpace=wrap;html=1;" vertex="1" parent="1">
          <mxGeometry x="-1370" y="1200" width="200" height="180" as="geometry" />
        </mxCell>
        <mxCell id="ecLFSbvW6iDAmhPW75aN-309" value="kép" style="rounded=0;whiteSpace=wrap;html=1;" vertex="1" parent="1">
          <mxGeometry x="-1360" y="1219.9999999999998" width="90" height="80" as="geometry" />
        </mxCell>
        <mxCell id="ecLFSbvW6iDAmhPW75aN-310" value="ár" style="rounded=0;whiteSpace=wrap;html=1;" vertex="1" parent="1">
          <mxGeometry x="-1257.5" y="1287.4999999999998" width="80" height="30" as="geometry" />
        </mxCell>
        <mxCell id="ecLFSbvW6iDAmhPW75aN-311" value="" style="rounded=0;whiteSpace=wrap;html=1;" vertex="1" parent="1">
          <mxGeometry x="-2040" y="1384" width="200" height="186" as="geometry" />
        </mxCell>
        <mxCell id="ecLFSbvW6iDAmhPW75aN-312" value="kép" style="rounded=0;whiteSpace=wrap;html=1;" vertex="1" parent="1">
          <mxGeometry x="-2030" y="1403.9999999999998" width="90" height="80" as="geometry" />
        </mxCell>
        <mxCell id="ecLFSbvW6iDAmhPW75aN-313" value="ár" style="rounded=0;whiteSpace=wrap;html=1;" vertex="1" parent="1">
          <mxGeometry x="-1930" y="1469.9999999999998" width="80" height="30" as="geometry" />
        </mxCell>
        <mxCell id="ecLFSbvW6iDAmhPW75aN-314" value="" style="rounded=0;whiteSpace=wrap;html=1;" vertex="1" parent="1">
          <mxGeometry x="-1600" y="1380" width="200" height="190" as="geometry" />
        </mxCell>
        <mxCell id="ecLFSbvW6iDAmhPW75aN-315" value="kép" style="rounded=0;whiteSpace=wrap;html=1;" vertex="1" parent="1">
          <mxGeometry x="-1590" y="1399.9999999999998" width="90" height="80" as="geometry" />
        </mxCell>
        <mxCell id="ecLFSbvW6iDAmhPW75aN-316" value="ár" style="rounded=0;whiteSpace=wrap;html=1;" vertex="1" parent="1">
          <mxGeometry x="-1487.5" y="1463.9999999999998" width="80" height="30" as="geometry" />
        </mxCell>
        <mxCell id="ecLFSbvW6iDAmhPW75aN-317" value="" style="rounded=0;whiteSpace=wrap;html=1;" vertex="1" parent="1">
          <mxGeometry x="-1820" y="1380" width="200" height="190" as="geometry" />
        </mxCell>
        <mxCell id="ecLFSbvW6iDAmhPW75aN-318" value="kép" style="rounded=0;whiteSpace=wrap;html=1;" vertex="1" parent="1">
          <mxGeometry x="-1810" y="1399.9999999999998" width="90" height="80" as="geometry" />
        </mxCell>
        <mxCell id="ecLFSbvW6iDAmhPW75aN-319" value="ár" style="rounded=0;whiteSpace=wrap;html=1;" vertex="1" parent="1">
          <mxGeometry x="-1710" y="1463.9999999999998" width="80" height="30" as="geometry" />
        </mxCell>
        <mxCell id="ecLFSbvW6iDAmhPW75aN-320" value="műfajnév" style="rounded=0;whiteSpace=wrap;html=1;" vertex="1" parent="1">
          <mxGeometry x="-2070" y="1579.9999999999998" width="120" height="30" as="geometry" />
        </mxCell>
        <mxCell id="ecLFSbvW6iDAmhPW75aN-321" value="" style="rounded=0;whiteSpace=wrap;html=1;" vertex="1" parent="1">
          <mxGeometry x="-2040" y="1615" width="200" height="175" as="geometry" />
        </mxCell>
        <mxCell id="ecLFSbvW6iDAmhPW75aN-322" value="kép" style="rounded=0;whiteSpace=wrap;html=1;" vertex="1" parent="1">
          <mxGeometry x="-2030" y="1629.9999999999998" width="90" height="80" as="geometry" />
        </mxCell>
        <mxCell id="ecLFSbvW6iDAmhPW75aN-323" value="ár" style="rounded=0;whiteSpace=wrap;html=1;" vertex="1" parent="1">
          <mxGeometry x="-1925" y="1694" width="80" height="30" as="geometry" />
        </mxCell>
        <mxCell id="ecLFSbvW6iDAmhPW75aN-324" value="Kezdőlap" style="rounded=0;whiteSpace=wrap;html=1;" vertex="1" parent="1">
          <mxGeometry x="-2045" y="1000" width="120" height="60" as="geometry" />
        </mxCell>
        <mxCell id="ecLFSbvW6iDAmhPW75aN-325" value="&amp;nbsp;Admin Zenék" style="rounded=0;whiteSpace=wrap;html=1;" vertex="1" parent="1">
          <mxGeometry x="-1900" y="1000" width="120" height="60" as="geometry" />
        </mxCell>
        <mxCell id="ecLFSbvW6iDAmhPW75aN-326" value="Admin Filmek/Sorozatok" style="rounded=0;whiteSpace=wrap;html=1;" vertex="1" parent="1">
          <mxGeometry x="-1755" y="1000" width="120" height="60" as="geometry" />
        </mxCell>
        <mxCell id="ecLFSbvW6iDAmhPW75aN-327" value="cím" style="rounded=0;whiteSpace=wrap;html=1;" vertex="1" parent="1">
          <mxGeometry x="-1710" y="1204.9999999999998" width="80" height="30" as="geometry" />
        </mxCell>
        <mxCell id="ecLFSbvW6iDAmhPW75aN-328" value="cím" style="rounded=0;whiteSpace=wrap;html=1;" vertex="1" parent="1">
          <mxGeometry x="-1485" y="1204.9999999999998" width="80" height="30" as="geometry" />
        </mxCell>
        <mxCell id="ecLFSbvW6iDAmhPW75aN-329" value="cím" style="rounded=0;whiteSpace=wrap;html=1;" vertex="1" parent="1">
          <mxGeometry x="-1257.5" y="1204.9999999999998" width="80" height="30" as="geometry" />
        </mxCell>
        <mxCell id="ecLFSbvW6iDAmhPW75aN-330" value="cím" style="rounded=0;whiteSpace=wrap;html=1;" vertex="1" parent="1">
          <mxGeometry x="-1930" y="1389.9999999999998" width="80" height="30" as="geometry" />
        </mxCell>
        <mxCell id="ecLFSbvW6iDAmhPW75aN-331" value="cím" style="rounded=0;whiteSpace=wrap;html=1;" vertex="1" parent="1">
          <mxGeometry x="-1710" y="1383.9999999999998" width="80" height="30" as="geometry" />
        </mxCell>
        <mxCell id="ecLFSbvW6iDAmhPW75aN-332" value="cím" style="rounded=0;whiteSpace=wrap;html=1;" vertex="1" parent="1">
          <mxGeometry x="-1490" y="1383.9999999999998" width="80" height="30" as="geometry" />
        </mxCell>
        <mxCell id="ecLFSbvW6iDAmhPW75aN-333" value="cím" style="rounded=0;whiteSpace=wrap;html=1;" vertex="1" parent="1">
          <mxGeometry x="-1925" y="1614.9999999999998" width="80" height="30" as="geometry" />
        </mxCell>
        <mxCell id="ecLFSbvW6iDAmhPW75aN-334" value="előadó" style="rounded=0;whiteSpace=wrap;html=1;" vertex="1" parent="1">
          <mxGeometry x="-1710" y="1241.9999999999998" width="75" height="36" as="geometry" />
        </mxCell>
        <mxCell id="ecLFSbvW6iDAmhPW75aN-335" value="előadó" style="rounded=0;whiteSpace=wrap;html=1;" vertex="1" parent="1">
          <mxGeometry x="-1930" y="1241.9999999999998" width="75" height="36" as="geometry" />
        </mxCell>
        <mxCell id="ecLFSbvW6iDAmhPW75aN-336" value="előadó" style="rounded=0;whiteSpace=wrap;html=1;" vertex="1" parent="1">
          <mxGeometry x="-1485" y="1241.9999999999998" width="75" height="36" as="geometry" />
        </mxCell>
        <mxCell id="ecLFSbvW6iDAmhPW75aN-337" value="előadó" style="rounded=0;whiteSpace=wrap;html=1;" vertex="1" parent="1">
          <mxGeometry x="-1257.5" y="1241.9999999999998" width="75" height="36" as="geometry" />
        </mxCell>
        <mxCell id="ecLFSbvW6iDAmhPW75aN-338" value="előadó" style="rounded=0;whiteSpace=wrap;html=1;" vertex="1" parent="1">
          <mxGeometry x="-1927.5" y="1425.9999999999998" width="75" height="36" as="geometry" />
        </mxCell>
        <mxCell id="ecLFSbvW6iDAmhPW75aN-339" value="előadó" style="rounded=0;whiteSpace=wrap;html=1;" vertex="1" parent="1">
          <mxGeometry x="-1707.5" y="1419.9999999999998" width="75" height="36" as="geometry" />
        </mxCell>
        <mxCell id="ecLFSbvW6iDAmhPW75aN-340" value="előadó" style="rounded=0;whiteSpace=wrap;html=1;" vertex="1" parent="1">
          <mxGeometry x="-1487.5" y="1419.9999999999998" width="75" height="36" as="geometry" />
        </mxCell>
        <mxCell id="ecLFSbvW6iDAmhPW75aN-341" value="előadó" style="rounded=0;whiteSpace=wrap;html=1;" vertex="1" parent="1">
          <mxGeometry x="-1922.5" y="1651.9999999999998" width="75" height="36" as="geometry" />
        </mxCell>
        <mxCell id="ecLFSbvW6iDAmhPW75aN-342" value="Nyelv" style="rounded=0;whiteSpace=wrap;html=1;" vertex="1" parent="1">
          <mxGeometry x="-1570" y="1097.5" width="120" height="25" as="geometry" />
        </mxCell>
        <mxCell id="ecLFSbvW6iDAmhPW75aN-343" value="Műfaj" style="rounded=0;whiteSpace=wrap;html=1;" vertex="1" parent="1">
          <mxGeometry x="-1760" y="1095" width="120" height="25" as="geometry" />
        </mxCell>
        <mxCell id="ecLFSbvW6iDAmhPW75aN-344" value="Ár" style="rounded=0;whiteSpace=wrap;html=1;" vertex="1" parent="1">
          <mxGeometry x="-1240" y="1095" width="100" height="25" as="geometry" />
        </mxCell>
        <mxCell id="ecLFSbvW6iDAmhPW75aN-345" value="Formátum" style="rounded=0;whiteSpace=wrap;html=1;" vertex="1" parent="1">
          <mxGeometry x="-1405" y="1097.5" width="120" height="25" as="geometry" />
        </mxCell>
        <mxCell id="ecLFSbvW6iDAmhPW75aN-346" value="darabszám" style="rounded=0;whiteSpace=wrap;html=1;" vertex="1" parent="1">
          <mxGeometry x="-2030" y="1314" width="90" height="30" as="geometry" />
        </mxCell>
        <mxCell id="ecLFSbvW6iDAmhPW75aN-347" value="darabszám" style="rounded=0;whiteSpace=wrap;html=1;" vertex="1" parent="1">
          <mxGeometry x="-1810" y="1314" width="90" height="30" as="geometry" />
        </mxCell>
        <mxCell id="ecLFSbvW6iDAmhPW75aN-348" value="darabszám" style="rounded=0;whiteSpace=wrap;html=1;" vertex="1" parent="1">
          <mxGeometry x="-1590" y="1314" width="90" height="30" as="geometry" />
        </mxCell>
        <mxCell id="ecLFSbvW6iDAmhPW75aN-349" value="darabszám" style="rounded=0;whiteSpace=wrap;html=1;" vertex="1" parent="1">
          <mxGeometry x="-1360" y="1314" width="90" height="30" as="geometry" />
        </mxCell>
        <mxCell id="ecLFSbvW6iDAmhPW75aN-350" value="darabszám" style="rounded=0;whiteSpace=wrap;html=1;" vertex="1" parent="1">
          <mxGeometry x="-2030" y="1498" width="90" height="30" as="geometry" />
        </mxCell>
        <mxCell id="ecLFSbvW6iDAmhPW75aN-351" value="darabszám" style="rounded=0;whiteSpace=wrap;html=1;" vertex="1" parent="1">
          <mxGeometry x="-1810" y="1494" width="90" height="30" as="geometry" />
        </mxCell>
        <mxCell id="ecLFSbvW6iDAmhPW75aN-352" value="darabszám" style="rounded=0;whiteSpace=wrap;html=1;" vertex="1" parent="1">
          <mxGeometry x="-1590" y="1494" width="90" height="30" as="geometry" />
        </mxCell>
        <mxCell id="ecLFSbvW6iDAmhPW75aN-353" value="darabszám" style="rounded=0;whiteSpace=wrap;html=1;" vertex="1" parent="1">
          <mxGeometry x="-2030" y="1724" width="90" height="30" as="geometry" />
        </mxCell>
        <mxCell id="ecLFSbvW6iDAmhPW75aN-354" value="formátum" style="rounded=0;whiteSpace=wrap;html=1;" vertex="1" parent="1">
          <mxGeometry x="-1930" y="1320" width="80" height="30" as="geometry" />
        </mxCell>
        <mxCell id="ecLFSbvW6iDAmhPW75aN-355" value="formátum" style="rounded=0;whiteSpace=wrap;html=1;" vertex="1" parent="1">
          <mxGeometry x="-1710" y="1320" width="80" height="30" as="geometry" />
        </mxCell>
        <mxCell id="ecLFSbvW6iDAmhPW75aN-356" value="formátum" style="rounded=0;whiteSpace=wrap;html=1;" vertex="1" parent="1">
          <mxGeometry x="-1487.5" y="1320" width="80" height="30" as="geometry" />
        </mxCell>
        <mxCell id="ecLFSbvW6iDAmhPW75aN-357" value="formátum" style="rounded=0;whiteSpace=wrap;html=1;" vertex="1" parent="1">
          <mxGeometry x="-1257.5" y="1320" width="80" height="30" as="geometry" />
        </mxCell>
        <mxCell id="ecLFSbvW6iDAmhPW75aN-358" value="formátum" style="rounded=0;whiteSpace=wrap;html=1;" vertex="1" parent="1">
          <mxGeometry x="-1930" y="1510" width="80" height="30" as="geometry" />
        </mxCell>
        <mxCell id="ecLFSbvW6iDAmhPW75aN-359" value="formátum" style="rounded=0;whiteSpace=wrap;html=1;" vertex="1" parent="1">
          <mxGeometry x="-1710" y="1500" width="80" height="30" as="geometry" />
        </mxCell>
        <mxCell id="ecLFSbvW6iDAmhPW75aN-360" value="formátum" style="rounded=0;whiteSpace=wrap;html=1;" vertex="1" parent="1">
          <mxGeometry x="-1487.5" y="1500" width="80" height="30" as="geometry" />
        </mxCell>
        <mxCell id="ecLFSbvW6iDAmhPW75aN-361" value="formátum" style="rounded=0;whiteSpace=wrap;html=1;" vertex="1" parent="1">
          <mxGeometry x="-1927.5" y="1730" width="80" height="30" as="geometry" />
        </mxCell>
        <mxCell id="ecLFSbvW6iDAmhPW75aN-362" value="" style="html=1;shadow=0;dashed=0;align=center;verticalAlign=middle;shape=mxgraph.arrows2.arrow;dy=0.6;dx=40;direction=south;notch=0;" vertex="1" parent="1">
          <mxGeometry x="-1470" y="1102.5" width="20" height="20" as="geometry" />
        </mxCell>
        <mxCell id="ecLFSbvW6iDAmhPW75aN-363" value="" style="shape=flexArrow;endArrow=classic;html=1;rounded=0;entryX=0.315;entryY=0.983;entryDx=0;entryDy=0;entryPerimeter=0;" edge="1" parent="1" source="ecLFSbvW6iDAmhPW75aN-362" target="ecLFSbvW6iDAmhPW75aN-254">
          <mxGeometry width="50" height="50" relative="1" as="geometry">
            <mxPoint x="-2884.5" y="1269" as="sourcePoint" />
            <mxPoint x="-2050" y="870" as="targetPoint" />
          </mxGeometry>
        </mxCell>
        <mxCell id="ecLFSbvW6iDAmhPW75aN-364" value="" style="html=1;shadow=0;dashed=0;align=center;verticalAlign=middle;shape=mxgraph.arrows2.arrow;dy=0.6;dx=40;direction=south;notch=0;" vertex="1" parent="1">
          <mxGeometry x="-1670" y="1097.5" width="20" height="20" as="geometry" />
        </mxCell>
        <mxCell id="ecLFSbvW6iDAmhPW75aN-365" value="" style="html=1;shadow=0;dashed=0;align=center;verticalAlign=middle;shape=mxgraph.arrows2.arrow;dy=0.6;dx=40;direction=south;notch=0;" vertex="1" parent="1">
          <mxGeometry x="-1310" y="1100" width="20" height="20" as="geometry" />
        </mxCell>
        <mxCell id="ecLFSbvW6iDAmhPW75aN-366" value="" style="html=1;shadow=0;dashed=0;align=center;verticalAlign=middle;shape=mxgraph.arrows2.arrow;dy=0.6;dx=40;direction=south;notch=0;" vertex="1" parent="1">
          <mxGeometry x="-1170" y="1097.5" width="20" height="20" as="geometry" />
        </mxCell>
        <mxCell id="ecLFSbvW6iDAmhPW75aN-367" value="" style="shape=flexArrow;endArrow=classic;html=1;rounded=0;entryX=0;entryY=0.75;entryDx=0;entryDy=0;" edge="1" parent="1" source="ecLFSbvW6iDAmhPW75aN-364" target="ecLFSbvW6iDAmhPW75aN-254">
          <mxGeometry width="50" height="50" relative="1" as="geometry">
            <mxPoint x="-1659" y="1108" as="sourcePoint" />
            <mxPoint x="-1502" y="832" as="targetPoint" />
          </mxGeometry>
        </mxCell>
        <mxCell id="ecLFSbvW6iDAmhPW75aN-368" value="" style="shape=flexArrow;endArrow=classic;html=1;rounded=0;entryX=1;entryY=1;entryDx=0;entryDy=0;exitX=0.453;exitY=0.311;exitDx=0;exitDy=0;exitPerimeter=0;" edge="1" parent="1" source="ecLFSbvW6iDAmhPW75aN-366" target="ecLFSbvW6iDAmhPW75aN-254">
          <mxGeometry width="50" height="50" relative="1" as="geometry">
            <mxPoint x="-1629" y="1138" as="sourcePoint" />
            <mxPoint x="-1472" y="862" as="targetPoint" />
          </mxGeometry>
        </mxCell>
        <mxCell id="ecLFSbvW6iDAmhPW75aN-369" value="" style="shape=flexArrow;endArrow=classic;html=1;rounded=0;" edge="1" parent="1" source="ecLFSbvW6iDAmhPW75aN-343" target="ecLFSbvW6iDAmhPW75aN-370">
          <mxGeometry width="50" height="50" relative="1" as="geometry">
            <mxPoint x="-1660" y="1180" as="sourcePoint" />
            <mxPoint x="-1920" y="760" as="targetPoint" />
          </mxGeometry>
        </mxCell>
        <mxCell id="ecLFSbvW6iDAmhPW75aN-370" value="Pl: klasszikus, jazz, rock, pop, stb ...." style="rounded=1;whiteSpace=wrap;html=1;" vertex="1" parent="1">
          <mxGeometry x="-2180" y="710" width="247.5" height="60" as="geometry" />
        </mxCell>
        <mxCell id="ecLFSbvW6iDAmhPW75aN-371" value="ADMIN" style="rounded=0;whiteSpace=wrap;html=1;" vertex="1" parent="1">
          <mxGeometry x="-1150" y="1000" width="80" height="60" as="geometry" />
        </mxCell>
        <mxCell id="ecLFSbvW6iDAmhPW75aN-372" value="Műfaj hozzáadás" style="rounded=0;whiteSpace=wrap;html=1;" vertex="1" parent="1">
          <mxGeometry x="-2060" y="1140" width="130" height="30" as="geometry" />
        </mxCell>
        <mxCell id="ecLFSbvW6iDAmhPW75aN-373" value="Műfaj törlés" style="rounded=0;whiteSpace=wrap;html=1;" vertex="1" parent="1">
          <mxGeometry x="-1910" y="1140" width="130" height="30" as="geometry" />
        </mxCell>
        <mxCell id="ecLFSbvW6iDAmhPW75aN-374" value="Műfaj módosítás" style="rounded=0;whiteSpace=wrap;html=1;" vertex="1" parent="1">
          <mxGeometry x="-1760" y="1140" width="130" height="30" as="geometry" />
        </mxCell>
        <mxCell id="ecLFSbvW6iDAmhPW75aN-375" value="Zene hozzáadás" style="rounded=0;whiteSpace=wrap;html=1;" vertex="1" parent="1">
          <mxGeometry x="-1610" y="1140" width="130" height="30" as="geometry" />
        </mxCell>
        <mxCell id="ecLFSbvW6iDAmhPW75aN-376" value="Módosítás" style="rounded=0;whiteSpace=wrap;html=1;" vertex="1" parent="1">
          <mxGeometry x="-1935" y="1354" width="90" height="26" as="geometry" />
        </mxCell>
        <mxCell id="ecLFSbvW6iDAmhPW75aN-377" value="Törlés" style="rounded=0;whiteSpace=wrap;html=1;" vertex="1" parent="1">
          <mxGeometry x="-2030" y="1351" width="90" height="26" as="geometry" />
        </mxCell>
        <mxCell id="ecLFSbvW6iDAmhPW75aN-378" value="Módosítás" style="rounded=0;whiteSpace=wrap;html=1;" vertex="1" parent="1">
          <mxGeometry x="-1935" y="1760" width="90" height="26" as="geometry" />
        </mxCell>
        <mxCell id="ecLFSbvW6iDAmhPW75aN-379" value="Törlés" style="rounded=0;whiteSpace=wrap;html=1;" vertex="1" parent="1">
          <mxGeometry x="-1590" y="1540" width="90" height="26" as="geometry" />
        </mxCell>
        <mxCell id="ecLFSbvW6iDAmhPW75aN-380" value="Módosítás" style="rounded=0;whiteSpace=wrap;html=1;" vertex="1" parent="1">
          <mxGeometry x="-1717.5" y="1540" width="90" height="26" as="geometry" />
        </mxCell>
        <mxCell id="ecLFSbvW6iDAmhPW75aN-381" value="Törlés" style="rounded=0;whiteSpace=wrap;html=1;" vertex="1" parent="1">
          <mxGeometry x="-1810" y="1540" width="90" height="26" as="geometry" />
        </mxCell>
        <mxCell id="ecLFSbvW6iDAmhPW75aN-382" value="Módosítás" style="rounded=0;whiteSpace=wrap;html=1;" vertex="1" parent="1">
          <mxGeometry x="-1935" y="1540" width="90" height="26" as="geometry" />
        </mxCell>
        <mxCell id="ecLFSbvW6iDAmhPW75aN-383" value="Törlés" style="rounded=0;whiteSpace=wrap;html=1;" vertex="1" parent="1">
          <mxGeometry x="-2030" y="1540" width="90" height="26" as="geometry" />
        </mxCell>
        <mxCell id="ecLFSbvW6iDAmhPW75aN-384" value="Módosítás" style="rounded=0;whiteSpace=wrap;html=1;" vertex="1" parent="1">
          <mxGeometry x="-1260" y="1351" width="90" height="26" as="geometry" />
        </mxCell>
        <mxCell id="ecLFSbvW6iDAmhPW75aN-385" value="Törlés" style="rounded=0;whiteSpace=wrap;html=1;" vertex="1" parent="1">
          <mxGeometry x="-1350" y="1350" width="90" height="26" as="geometry" />
        </mxCell>
        <mxCell id="ecLFSbvW6iDAmhPW75aN-386" value="Módosítás" style="rounded=0;whiteSpace=wrap;html=1;" vertex="1" parent="1">
          <mxGeometry x="-1495" y="1351" width="90" height="26" as="geometry" />
        </mxCell>
        <mxCell id="ecLFSbvW6iDAmhPW75aN-387" value="Törlés" style="rounded=0;whiteSpace=wrap;html=1;" vertex="1" parent="1">
          <mxGeometry x="-1590" y="1350" width="90" height="26" as="geometry" />
        </mxCell>
        <mxCell id="ecLFSbvW6iDAmhPW75aN-388" value="Módosítás" style="rounded=0;whiteSpace=wrap;html=1;" vertex="1" parent="1">
          <mxGeometry x="-1715" y="1351" width="90" height="26" as="geometry" />
        </mxCell>
        <mxCell id="ecLFSbvW6iDAmhPW75aN-389" value="Törlés" style="rounded=0;whiteSpace=wrap;html=1;" vertex="1" parent="1">
          <mxGeometry x="-1810" y="1350" width="90" height="26" as="geometry" />
        </mxCell>
        <mxCell id="ecLFSbvW6iDAmhPW75aN-390" value="Törlés" style="rounded=0;whiteSpace=wrap;html=1;" vertex="1" parent="1">
          <mxGeometry x="-2030" y="1760" width="90" height="26" as="geometry" />
        </mxCell>
        <mxCell id="ecLFSbvW6iDAmhPW75aN-391" value="Módosítás" style="rounded=0;whiteSpace=wrap;html=1;" vertex="1" parent="1">
          <mxGeometry x="-1490" y="1540" width="90" height="26" as="geometry" />
        </mxCell>
        <mxCell id="ecLFSbvW6iDAmhPW75aN-392" value="Admin Foglalások" style="rounded=0;whiteSpace=wrap;html=1;" vertex="1" parent="1">
          <mxGeometry x="-1592.5" y="1000" width="180" height="60" as="geometry" />
        </mxCell>
        <mxCell id="ecLFSbvW6iDAmhPW75aN-393" value="Admin Profilok" style="rounded=0;whiteSpace=wrap;html=1;" vertex="1" parent="1">
          <mxGeometry x="-1370" y="1000" width="160" height="60" as="geometry" />
        </mxCell>
        <mxCell id="ecLFSbvW6iDAmhPW75aN-394" value="" style="shape=flexArrow;endArrow=classic;html=1;rounded=0;entryX=0.75;entryY=1;entryDx=0;entryDy=0;exitX=0.415;exitY=0.588;exitDx=0;exitDy=0;exitPerimeter=0;" edge="1" parent="1" source="ecLFSbvW6iDAmhPW75aN-365" target="ecLFSbvW6iDAmhPW75aN-254">
          <mxGeometry width="50" height="50" relative="1" as="geometry">
            <mxPoint x="-1639" y="1128" as="sourcePoint" />
            <mxPoint x="-1482" y="852" as="targetPoint" />
          </mxGeometry>
        </mxCell>
        <mxCell id="ecLFSbvW6iDAmhPW75aN-395" value="" style="shape=flexArrow;endArrow=classic;html=1;rounded=0;" edge="1" parent="1" source="ecLFSbvW6iDAmhPW75aN-372" target="ecLFSbvW6iDAmhPW75aN-396">
          <mxGeometry width="50" height="50" relative="1" as="geometry">
            <mxPoint x="-1820" y="1420" as="sourcePoint" />
            <mxPoint x="-2560" y="1440" as="targetPoint" />
          </mxGeometry>
        </mxCell>
        <mxCell id="ecLFSbvW6iDAmhPW75aN-396" value="" style="rounded=0;whiteSpace=wrap;html=1;" vertex="1" parent="1">
          <mxGeometry x="-2620" y="1410" width="270" height="360" as="geometry" />
        </mxCell>
        <mxCell id="ecLFSbvW6iDAmhPW75aN-397" value="Műfaj neve:" style="rounded=0;whiteSpace=wrap;html=1;" vertex="1" parent="1">
          <mxGeometry x="-2550" y="1445" width="120" height="60" as="geometry" />
        </mxCell>
        <mxCell id="ecLFSbvW6iDAmhPW75aN-398" value="(Beírjuk a műfaj nevét)" style="rounded=0;whiteSpace=wrap;html=1;" vertex="1" parent="1">
          <mxGeometry x="-2550" y="1528" width="120" height="60" as="geometry" />
        </mxCell>
        <mxCell id="ecLFSbvW6iDAmhPW75aN-399" value="Hozzáadás" style="rounded=0;whiteSpace=wrap;html=1;" vertex="1" parent="1">
          <mxGeometry x="-2550" y="1610" width="120" height="60" as="geometry" />
        </mxCell>
        <mxCell id="ecLFSbvW6iDAmhPW75aN-400" value="Ha hozzáadjuk, akkor megjelenik az adott műfaj a zenék böngészésénél, lásd itt" style="rounded=0;whiteSpace=wrap;html=1;" vertex="1" parent="1">
          <mxGeometry x="-2610" y="1688" width="250" height="60" as="geometry" />
        </mxCell>
        <mxCell id="ecLFSbvW6iDAmhPW75aN-401" value="" style="shape=flexArrow;endArrow=classic;html=1;rounded=0;entryX=0;entryY=0.5;entryDx=0;entryDy=0;exitX=0.88;exitY=0.867;exitDx=0;exitDy=0;exitPerimeter=0;" edge="1" parent="1" source="ecLFSbvW6iDAmhPW75aN-400" target="ecLFSbvW6iDAmhPW75aN-320">
          <mxGeometry width="50" height="50" relative="1" as="geometry">
            <mxPoint x="-2340" y="1510" as="sourcePoint" />
            <mxPoint x="-2290" y="1460" as="targetPoint" />
          </mxGeometry>
        </mxCell>
        <mxCell id="ecLFSbvW6iDAmhPW75aN-402" value="" style="shape=flexArrow;endArrow=classic;html=1;rounded=0;exitX=0;exitY=1;exitDx=0;exitDy=0;" edge="1" parent="1" source="ecLFSbvW6iDAmhPW75aN-373" target="ecLFSbvW6iDAmhPW75aN-403">
          <mxGeometry width="50" height="50" relative="1" as="geometry">
            <mxPoint x="-2070" y="1520" as="sourcePoint" />
            <mxPoint x="-1760" y="540" as="targetPoint" />
          </mxGeometry>
        </mxCell>
        <mxCell id="ecLFSbvW6iDAmhPW75aN-403" value="" style="rounded=0;whiteSpace=wrap;html=1;" vertex="1" parent="1">
          <mxGeometry x="-1880" y="190" width="270" height="330" as="geometry" />
        </mxCell>
        <mxCell id="ecLFSbvW6iDAmhPW75aN-404" value="Műfaj neve:" style="rounded=0;whiteSpace=wrap;html=1;" vertex="1" parent="1">
          <mxGeometry x="-1805" y="210" width="120" height="60" as="geometry" />
        </mxCell>
        <mxCell id="ecLFSbvW6iDAmhPW75aN-405" value="Dropdown" style="rounded=0;whiteSpace=wrap;html=1;" vertex="1" parent="1">
          <mxGeometry x="-1800" y="290" width="120" height="60" as="geometry" />
        </mxCell>
        <mxCell id="ecLFSbvW6iDAmhPW75aN-406" value="Törlés" style="rounded=0;whiteSpace=wrap;html=1;" vertex="1" parent="1">
          <mxGeometry x="-1800" y="380" width="120" height="60" as="geometry" />
        </mxCell>
        <mxCell id="ecLFSbvW6iDAmhPW75aN-407" value="Ha töröljük, akkor eltűnik az adott műfaj a zenék böngészésénél" style="rounded=0;whiteSpace=wrap;html=1;" vertex="1" parent="1">
          <mxGeometry x="-1865" y="450" width="250" height="60" as="geometry" />
        </mxCell>
        <mxCell id="ecLFSbvW6iDAmhPW75aN-408" value="" style="shape=flexArrow;endArrow=classic;html=1;rounded=0;exitX=1;exitY=0.75;exitDx=0;exitDy=0;" edge="1" parent="1" source="ecLFSbvW6iDAmhPW75aN-374" target="ecLFSbvW6iDAmhPW75aN-409">
          <mxGeometry width="50" height="50" relative="1" as="geometry">
            <mxPoint x="-1620" y="750" as="sourcePoint" />
            <mxPoint x="-1470" y="340" as="targetPoint" />
          </mxGeometry>
        </mxCell>
        <mxCell id="ecLFSbvW6iDAmhPW75aN-409" value="" style="rounded=0;whiteSpace=wrap;html=1;" vertex="1" parent="1">
          <mxGeometry x="-1530" y="-10" width="260" height="460" as="geometry" />
        </mxCell>
        <mxCell id="ecLFSbvW6iDAmhPW75aN-410" value="Módosítani kívánt műfaj neve:" style="rounded=0;whiteSpace=wrap;html=1;" vertex="1" parent="1">
          <mxGeometry x="-1450" y="10" width="120" height="60" as="geometry" />
        </mxCell>
        <mxCell id="ecLFSbvW6iDAmhPW75aN-411" value="Dropdown" style="rounded=0;whiteSpace=wrap;html=1;" vertex="1" parent="1">
          <mxGeometry x="-1450" y="80" width="120" height="60" as="geometry" />
        </mxCell>
        <mxCell id="ecLFSbvW6iDAmhPW75aN-412" value="Új műfaj név:" style="rounded=0;whiteSpace=wrap;html=1;" vertex="1" parent="1">
          <mxGeometry x="-1450" y="150" width="120" height="60" as="geometry" />
        </mxCell>
        <mxCell id="ecLFSbvW6iDAmhPW75aN-413" value="(Beírjuk a műfaj nevét)" style="rounded=0;whiteSpace=wrap;html=1;" vertex="1" parent="1">
          <mxGeometry x="-1450" y="220" width="120" height="60" as="geometry" />
        </mxCell>
        <mxCell id="ecLFSbvW6iDAmhPW75aN-414" value="Módosítás" style="rounded=0;whiteSpace=wrap;html=1;" vertex="1" parent="1">
          <mxGeometry x="-1450" y="290" width="120" height="60" as="geometry" />
        </mxCell>
        <mxCell id="ecLFSbvW6iDAmhPW75aN-415" value="Egy létező műfaj nevét módosítjuk egy másik névre" style="rounded=0;whiteSpace=wrap;html=1;" vertex="1" parent="1">
          <mxGeometry x="-1525" y="370" width="245" height="60" as="geometry" />
        </mxCell>
        <mxCell id="ecLFSbvW6iDAmhPW75aN-416" value="" style="shape=flexArrow;endArrow=classic;html=1;rounded=0;exitX=1;exitY=0.75;exitDx=0;exitDy=0;" edge="1" parent="1" source="ecLFSbvW6iDAmhPW75aN-375" target="ecLFSbvW6iDAmhPW75aN-423">
          <mxGeometry width="50" height="50" relative="1" as="geometry">
            <mxPoint x="-1640" y="1020" as="sourcePoint" />
            <mxPoint x="-900" y="640" as="targetPoint" />
          </mxGeometry>
        </mxCell>
        <mxCell id="ecLFSbvW6iDAmhPW75aN-417" value="" style="shape=flexArrow;endArrow=classic;html=1;rounded=0;exitX=0;exitY=0.75;exitDx=0;exitDy=0;" edge="1" parent="1" source="ecLFSbvW6iDAmhPW75aN-390" target="ecLFSbvW6iDAmhPW75aN-418">
          <mxGeometry width="50" height="50" relative="1" as="geometry">
            <mxPoint x="-1870" y="1710" as="sourcePoint" />
            <mxPoint x="-2060" y="1920" as="targetPoint" />
          </mxGeometry>
        </mxCell>
        <mxCell id="ecLFSbvW6iDAmhPW75aN-418" value="Adott zene törlése?" style="rounded=0;whiteSpace=wrap;html=1;" vertex="1" parent="1">
          <mxGeometry x="-2116.25" y="1960" width="166.25" height="160" as="geometry" />
        </mxCell>
        <mxCell id="ecLFSbvW6iDAmhPW75aN-419" value="Igen" style="rounded=0;whiteSpace=wrap;html=1;" vertex="1" parent="1">
          <mxGeometry x="-2110" y="2060" width="60" height="40" as="geometry" />
        </mxCell>
        <mxCell id="ecLFSbvW6iDAmhPW75aN-420" value="Nem" style="rounded=0;whiteSpace=wrap;html=1;" vertex="1" parent="1">
          <mxGeometry x="-2030" y="2060" width="60" height="40" as="geometry" />
        </mxCell>
        <mxCell id="ecLFSbvW6iDAmhPW75aN-421" value="" style="shape=flexArrow;endArrow=classic;html=1;rounded=0;entryX=0.005;entryY=0.205;entryDx=0;entryDy=0;entryPerimeter=0;" edge="1" parent="1" source="ecLFSbvW6iDAmhPW75aN-378" target="ecLFSbvW6iDAmhPW75aN-451">
          <mxGeometry width="50" height="50" relative="1" as="geometry">
            <mxPoint x="-1900" y="1860" as="sourcePoint" />
            <mxPoint x="-655.4899999999998" y="1717.48" as="targetPoint" />
          </mxGeometry>
        </mxCell>
        <mxCell id="ecLFSbvW6iDAmhPW75aN-422" value="" style="group" vertex="1" connectable="0" parent="1">
          <mxGeometry x="-990" y="210" width="410" height="870" as="geometry" />
        </mxCell>
        <mxCell id="ecLFSbvW6iDAmhPW75aN-423" value="" style="rounded=0;whiteSpace=wrap;html=1;" vertex="1" parent="ecLFSbvW6iDAmhPW75aN-422">
          <mxGeometry width="410" height="870" as="geometry" />
        </mxCell>
        <mxCell id="ecLFSbvW6iDAmhPW75aN-424" value="Cím:" style="rounded=0;whiteSpace=wrap;html=1;" vertex="1" parent="ecLFSbvW6iDAmhPW75aN-422">
          <mxGeometry x="130" y="10" width="120" height="60" as="geometry" />
        </mxCell>
        <mxCell id="ecLFSbvW6iDAmhPW75aN-425" value="Beírjuk a címet" style="rounded=0;whiteSpace=wrap;html=1;" vertex="1" parent="ecLFSbvW6iDAmhPW75aN-422">
          <mxGeometry x="130" y="70" width="120" height="60" as="geometry" />
        </mxCell>
        <mxCell id="ecLFSbvW6iDAmhPW75aN-426" value="Előadó:" style="rounded=0;whiteSpace=wrap;html=1;" vertex="1" parent="ecLFSbvW6iDAmhPW75aN-422">
          <mxGeometry x="130" y="140" width="120" height="60" as="geometry" />
        </mxCell>
        <mxCell id="ecLFSbvW6iDAmhPW75aN-427" value="Beírjuk az előadót" style="rounded=0;whiteSpace=wrap;html=1;" vertex="1" parent="ecLFSbvW6iDAmhPW75aN-422">
          <mxGeometry x="130" y="200" width="120" height="60" as="geometry" />
        </mxCell>
        <mxCell id="ecLFSbvW6iDAmhPW75aN-428" value="Ár:" style="rounded=0;whiteSpace=wrap;html=1;" vertex="1" parent="ecLFSbvW6iDAmhPW75aN-422">
          <mxGeometry x="130" y="270" width="120" height="60" as="geometry" />
        </mxCell>
        <mxCell id="ecLFSbvW6iDAmhPW75aN-429" value="Beírjuk az árat" style="rounded=0;whiteSpace=wrap;html=1;" vertex="1" parent="ecLFSbvW6iDAmhPW75aN-422">
          <mxGeometry x="130" y="330" width="120" height="60" as="geometry" />
        </mxCell>
        <mxCell id="ecLFSbvW6iDAmhPW75aN-430" value="Formátum:" style="rounded=0;whiteSpace=wrap;html=1;" vertex="1" parent="ecLFSbvW6iDAmhPW75aN-422">
          <mxGeometry x="130" y="400" width="120" height="60" as="geometry" />
        </mxCell>
        <mxCell id="ecLFSbvW6iDAmhPW75aN-431" value="Beírjuk a formátumot" style="rounded=0;whiteSpace=wrap;html=1;" vertex="1" parent="ecLFSbvW6iDAmhPW75aN-422">
          <mxGeometry x="130" y="460" width="120" height="60" as="geometry" />
        </mxCell>
        <mxCell id="ecLFSbvW6iDAmhPW75aN-432" value="Darabszám:" style="rounded=0;whiteSpace=wrap;html=1;" vertex="1" parent="ecLFSbvW6iDAmhPW75aN-422">
          <mxGeometry x="130" y="530" width="120" height="60" as="geometry" />
        </mxCell>
        <mxCell id="ecLFSbvW6iDAmhPW75aN-433" value="Beírjuk a darabszámot" style="rounded=0;whiteSpace=wrap;html=1;" vertex="1" parent="ecLFSbvW6iDAmhPW75aN-422">
          <mxGeometry x="130" y="590" width="120" height="60" as="geometry" />
        </mxCell>
        <mxCell id="ecLFSbvW6iDAmhPW75aN-434" value="Műfaj kiválasztása:" style="rounded=0;whiteSpace=wrap;html=1;" vertex="1" parent="ecLFSbvW6iDAmhPW75aN-422">
          <mxGeometry x="130" y="660" width="120" height="60" as="geometry" />
        </mxCell>
        <mxCell id="ecLFSbvW6iDAmhPW75aN-435" value="Dropdown, hogy melyik műfajhoz adjuk hozzá a zenét" style="rounded=0;whiteSpace=wrap;html=1;" vertex="1" parent="ecLFSbvW6iDAmhPW75aN-422">
          <mxGeometry x="130" y="720" width="120" height="60" as="geometry" />
        </mxCell>
        <mxCell id="ecLFSbvW6iDAmhPW75aN-436" value="Hozzáadás" style="rounded=0;whiteSpace=wrap;html=1;" vertex="1" parent="ecLFSbvW6iDAmhPW75aN-422">
          <mxGeometry x="130" y="800" width="120" height="60" as="geometry" />
        </mxCell>
        <mxCell id="ecLFSbvW6iDAmhPW75aN-450" value="" style="group" vertex="1" connectable="0" parent="1">
          <mxGeometry x="-640" y="1540" width="410" height="870" as="geometry" />
        </mxCell>
        <mxCell id="ecLFSbvW6iDAmhPW75aN-451" value="" style="rounded=0;whiteSpace=wrap;html=1;" vertex="1" parent="ecLFSbvW6iDAmhPW75aN-450">
          <mxGeometry width="410" height="870" as="geometry" />
        </mxCell>
        <mxCell id="ecLFSbvW6iDAmhPW75aN-452" value="Cím:" style="rounded=0;whiteSpace=wrap;html=1;" vertex="1" parent="ecLFSbvW6iDAmhPW75aN-450">
          <mxGeometry x="130" y="10" width="120" height="60" as="geometry" />
        </mxCell>
        <mxCell id="ecLFSbvW6iDAmhPW75aN-453" value="Beírjuk a címet" style="rounded=0;whiteSpace=wrap;html=1;" vertex="1" parent="ecLFSbvW6iDAmhPW75aN-450">
          <mxGeometry x="130" y="70" width="120" height="60" as="geometry" />
        </mxCell>
        <mxCell id="ecLFSbvW6iDAmhPW75aN-454" value="Előadó:" style="rounded=0;whiteSpace=wrap;html=1;" vertex="1" parent="ecLFSbvW6iDAmhPW75aN-450">
          <mxGeometry x="130" y="140" width="120" height="60" as="geometry" />
        </mxCell>
        <mxCell id="ecLFSbvW6iDAmhPW75aN-455" value="Beírjuk az előadót" style="rounded=0;whiteSpace=wrap;html=1;" vertex="1" parent="ecLFSbvW6iDAmhPW75aN-450">
          <mxGeometry x="130" y="200" width="120" height="60" as="geometry" />
        </mxCell>
        <mxCell id="ecLFSbvW6iDAmhPW75aN-456" value="Ár:" style="rounded=0;whiteSpace=wrap;html=1;" vertex="1" parent="ecLFSbvW6iDAmhPW75aN-450">
          <mxGeometry x="130" y="270" width="120" height="60" as="geometry" />
        </mxCell>
        <mxCell id="ecLFSbvW6iDAmhPW75aN-457" value="Beírjuk az árat" style="rounded=0;whiteSpace=wrap;html=1;" vertex="1" parent="ecLFSbvW6iDAmhPW75aN-450">
          <mxGeometry x="130" y="330" width="120" height="60" as="geometry" />
        </mxCell>
        <mxCell id="ecLFSbvW6iDAmhPW75aN-458" value="Formátum:" style="rounded=0;whiteSpace=wrap;html=1;" vertex="1" parent="ecLFSbvW6iDAmhPW75aN-450">
          <mxGeometry x="130" y="400" width="120" height="60" as="geometry" />
        </mxCell>
        <mxCell id="ecLFSbvW6iDAmhPW75aN-459" value="Beírjuk a formátumot" style="rounded=0;whiteSpace=wrap;html=1;" vertex="1" parent="ecLFSbvW6iDAmhPW75aN-450">
          <mxGeometry x="130" y="460" width="120" height="60" as="geometry" />
        </mxCell>
        <mxCell id="ecLFSbvW6iDAmhPW75aN-460" value="Darabszám:" style="rounded=0;whiteSpace=wrap;html=1;" vertex="1" parent="ecLFSbvW6iDAmhPW75aN-450">
          <mxGeometry x="130" y="530" width="120" height="60" as="geometry" />
        </mxCell>
        <mxCell id="ecLFSbvW6iDAmhPW75aN-461" value="Beírjuk a darabszámot" style="rounded=0;whiteSpace=wrap;html=1;" vertex="1" parent="ecLFSbvW6iDAmhPW75aN-450">
          <mxGeometry x="130" y="590" width="120" height="60" as="geometry" />
        </mxCell>
        <mxCell id="ecLFSbvW6iDAmhPW75aN-462" value="Műfaj kiválasztása:" style="rounded=0;whiteSpace=wrap;html=1;" vertex="1" parent="ecLFSbvW6iDAmhPW75aN-450">
          <mxGeometry x="130" y="660" width="120" height="60" as="geometry" />
        </mxCell>
        <mxCell id="ecLFSbvW6iDAmhPW75aN-463" value="Dropdown, hogy melyik műfajhoz adjuk a zenét" style="rounded=0;whiteSpace=wrap;html=1;" vertex="1" parent="ecLFSbvW6iDAmhPW75aN-450">
          <mxGeometry x="130" y="720" width="120" height="60" as="geometry" />
        </mxCell>
        <mxCell id="ecLFSbvW6iDAmhPW75aN-464" value="Módosítás" style="rounded=0;whiteSpace=wrap;html=1;" vertex="1" parent="ecLFSbvW6iDAmhPW75aN-450">
          <mxGeometry x="130" y="800" width="120" height="60" as="geometry" />
        </mxCell>
      </root>
    </mxGraphModel>
  </diagram>
</mxfile>
